<mxfile host="65bd71144e">
    <diagram id="tI2YDRwZFQs-Pu-blgDO" name="Page-1">
        <mxGraphModel dx="876" dy="662" grid="1" gridSize="10" guides="1" tooltips="1" connect="1" arrows="1" fold="1" page="1" pageScale="1" pageWidth="850" pageHeight="1100" math="0" shadow="0">
            <root>
                <mxCell id="0"/>
                <mxCell id="1" parent="0"/>
                <mxCell id="2" value="Produto" style="swimlane;fontStyle=0;childLayout=stackLayout;horizontal=1;startSize=26;fillColor=none;horizontalStack=0;resizeParent=1;resizeParentMax=0;resizeLast=0;collapsible=1;marginBottom=0;fontSize=13;strokeWidth=1;" parent="1" vertex="1">
                    <mxGeometry x="320" y="200" width="160" height="286" as="geometry"/>
                </mxCell>
                <mxCell id="3" value="_id:ObjectId" style="text;strokeColor=none;fillColor=none;align=left;verticalAlign=top;spacingLeft=4;spacingRight=4;overflow=hidden;rotatable=0;points=[[0,0.5],[1,0.5]];portConstraint=eastwest;fontSize=13;" parent="2" vertex="1">
                    <mxGeometry y="26" width="160" height="26" as="geometry"/>
                </mxCell>
                <mxCell id="4" value="nome: String" style="text;strokeColor=none;fillColor=none;align=left;verticalAlign=top;spacingLeft=4;spacingRight=4;overflow=hidden;rotatable=0;points=[[0,0.5],[1,0.5]];portConstraint=eastwest;fontSize=13;" parent="2" vertex="1">
                    <mxGeometry y="52" width="160" height="26" as="geometry"/>
                </mxCell>
                <mxCell id="5" value="marca: String" style="text;strokeColor=none;fillColor=none;align=left;verticalAlign=top;spacingLeft=4;spacingRight=4;overflow=hidden;rotatable=0;points=[[0,0.5],[1,0.5]];portConstraint=eastwest;fontSize=13;" parent="2" vertex="1">
                    <mxGeometry y="78" width="160" height="26" as="geometry"/>
                </mxCell>
                <mxCell id="39" value="especificacao: Strig?" style="text;strokeColor=none;fillColor=none;align=left;verticalAlign=top;spacingLeft=4;spacingRight=4;overflow=hidden;rotatable=0;points=[[0,0.5],[1,0.5]];portConstraint=eastwest;fontSize=13;" parent="2" vertex="1">
                    <mxGeometry y="104" width="160" height="26" as="geometry"/>
                </mxCell>
                <mxCell id="40" value="unidade_medida: String" style="text;strokeColor=none;fillColor=none;align=left;verticalAlign=top;spacingLeft=4;spacingRight=4;overflow=hidden;rotatable=0;points=[[0,0.5],[1,0.5]];portConstraint=eastwest;fontSize=13;" parent="2" vertex="1">
                    <mxGeometry y="130" width="160" height="26" as="geometry"/>
                </mxCell>
                <mxCell id="41" value="preco_unitario: Number" style="text;strokeColor=none;fillColor=none;align=left;verticalAlign=top;spacingLeft=4;spacingRight=4;overflow=hidden;rotatable=0;points=[[0,0.5],[1,0.5]];portConstraint=eastwest;fontSize=13;" parent="2" vertex="1">
                    <mxGeometry y="156" width="160" height="26" as="geometry"/>
                </mxCell>
                <mxCell id="42" value="qtd_estoque: Number" style="text;strokeColor=none;fillColor=none;align=left;verticalAlign=top;spacingLeft=4;spacingRight=4;overflow=hidden;rotatable=0;points=[[0,0.5],[1,0.5]];portConstraint=eastwest;fontSize=13;" parent="2" vertex="1">
                    <mxGeometry y="182" width="160" height="26" as="geometry"/>
                </mxCell>
                <mxCell id="43" value="categoria: Categoria" style="text;strokeColor=none;fillColor=none;align=left;verticalAlign=top;spacingLeft=4;spacingRight=4;overflow=hidden;rotatable=0;points=[[0,0.5],[1,0.5]];portConstraint=eastwest;fontSize=13;" parent="2" vertex="1">
                    <mxGeometry y="208" width="160" height="26" as="geometry"/>
                </mxCell>
                <mxCell id="98" value="quantidade number" style="text;strokeColor=none;fillColor=none;align=left;verticalAlign=top;spacingLeft=4;spacingRight=4;overflow=hidden;rotatable=0;points=[[0,0.5],[1,0.5]];portConstraint=eastwest;fontSize=13;" parent="2" vertex="1">
                    <mxGeometry y="234" width="160" height="26" as="geometry"/>
                </mxCell>
                <mxCell id="99" value="fornecedor:Â  fornecedor" style="text;strokeColor=none;fillColor=none;align=left;verticalAlign=top;spacingLeft=4;spacingRight=4;overflow=hidden;rotatable=0;points=[[0,0.5],[1,0.5]];portConstraint=eastwest;fontSize=13;" parent="2" vertex="1">
                    <mxGeometry y="260" width="160" height="26" as="geometry"/>
                </mxCell>
                <mxCell id="6" value="Fornecedor" style="swimlane;fontStyle=0;childLayout=stackLayout;horizontal=1;startSize=26;fillColor=none;horizontalStack=0;resizeParent=1;resizeParentMax=0;resizeLast=0;collapsible=1;marginBottom=0;" parent="1" vertex="1">
                    <mxGeometry x="690" y="121.77" width="140" height="360" as="geometry"/>
                </mxCell>
                <mxCell id="7" value="_id: ObjectId" style="text;strokeColor=none;fillColor=none;align=left;verticalAlign=top;spacingLeft=4;spacingRight=4;overflow=hidden;rotatable=0;points=[[0,0.5],[1,0.5]];portConstraint=eastwest;fontSize=13;" parent="6" vertex="1">
                    <mxGeometry y="26" width="140" height="26" as="geometry"/>
                </mxCell>
                <mxCell id="8" value="razao_social: String" style="text;strokeColor=none;fillColor=none;align=left;verticalAlign=top;spacingLeft=4;spacingRight=4;overflow=hidden;rotatable=0;points=[[0,0.5],[1,0.5]];portConstraint=eastwest;fontSize=13;" parent="6" vertex="1">
                    <mxGeometry y="52" width="140" height="26" as="geometry"/>
                </mxCell>
                <mxCell id="9" value="nome_fantasia: String" style="text;strokeColor=none;fillColor=none;align=left;verticalAlign=top;spacingLeft=4;spacingRight=4;overflow=hidden;rotatable=0;points=[[0,0.5],[1,0.5]];portConstraint=eastwest;fontSize=13;" parent="6" vertex="1">
                    <mxGeometry y="78" width="140" height="26" as="geometry"/>
                </mxCell>
                <mxCell id="85" value="cnpj: String" style="text;strokeColor=none;fillColor=none;align=left;verticalAlign=top;spacingLeft=4;spacingRight=4;overflow=hidden;rotatable=0;points=[[0,0.5],[1,0.5]];portConstraint=eastwest;fontSize=13;" parent="6" vertex="1">
                    <mxGeometry y="104" width="140" height="26" as="geometry"/>
                </mxCell>
                <mxCell id="86" value="email: String" style="text;strokeColor=none;fillColor=none;align=left;verticalAlign=top;spacingLeft=4;spacingRight=4;overflow=hidden;rotatable=0;points=[[0,0.5],[1,0.5]];portConstraint=eastwest;fontSize=13;" parent="6" vertex="1">
                    <mxGeometry y="130" width="140" height="26" as="geometry"/>
                </mxCell>
                <mxCell id="87" value="logradouro: String" style="text;strokeColor=none;fillColor=none;align=left;verticalAlign=top;spacingLeft=4;spacingRight=4;overflow=hidden;rotatable=0;points=[[0,0.5],[1,0.5]];portConstraint=eastwest;fontSize=13;" parent="6" vertex="1">
                    <mxGeometry y="156" width="140" height="22" as="geometry"/>
                </mxCell>
                <mxCell id="88" value="num_casa: String" style="text;strokeColor=none;fillColor=none;align=left;verticalAlign=top;spacingLeft=4;spacingRight=4;overflow=hidden;rotatable=0;points=[[0,0.5],[1,0.5]];portConstraint=eastwest;fontSize=13;" parent="6" vertex="1">
                    <mxGeometry y="178" width="140" height="26" as="geometry"/>
                </mxCell>
                <mxCell id="89" value="complemento: String?" style="text;strokeColor=none;fillColor=none;align=left;verticalAlign=top;spacingLeft=4;spacingRight=4;overflow=hidden;rotatable=0;points=[[0,0.5],[1,0.5]];portConstraint=eastwest;fontSize=13;" parent="6" vertex="1">
                    <mxGeometry y="204" width="140" height="26" as="geometry"/>
                </mxCell>
                <mxCell id="90" value="bairro: String" style="text;strokeColor=none;fillColor=none;align=left;verticalAlign=middle;spacingLeft=4;spacingRight=4;overflow=hidden;rotatable=0;points=[[0,0.5],[1,0.5]];portConstraint=eastwest;fontSize=13;" parent="6" vertex="1">
                    <mxGeometry y="230" width="140" height="26" as="geometry"/>
                </mxCell>
                <mxCell id="93" value="municipio: String" style="text;strokeColor=none;fillColor=none;align=left;verticalAlign=middle;spacingLeft=4;spacingRight=4;overflow=hidden;rotatable=0;points=[[0,0.5],[1,0.5]];portConstraint=eastwest;fontSize=13;" parent="6" vertex="1">
                    <mxGeometry y="256" width="140" height="26" as="geometry"/>
                </mxCell>
                <mxCell id="94" value="uf: String" style="text;strokeColor=none;fillColor=none;align=left;verticalAlign=middle;spacingLeft=4;spacingRight=4;overflow=hidden;rotatable=0;points=[[0,0.5],[1,0.5]];portConstraint=eastwest;fontSize=13;" parent="6" vertex="1">
                    <mxGeometry y="282" width="140" height="26" as="geometry"/>
                </mxCell>
                <mxCell id="95" value="cep: String" style="text;strokeColor=none;fillColor=none;align=left;verticalAlign=middle;spacingLeft=4;spacingRight=4;overflow=hidden;rotatable=0;points=[[0,0.5],[1,0.5]];portConstraint=eastwest;fontSize=13;" parent="6" vertex="1">
                    <mxGeometry y="308" width="140" height="26" as="geometry"/>
                </mxCell>
                <mxCell id="96" value="celular: String" style="text;strokeColor=none;fillColor=none;align=left;verticalAlign=middle;spacingLeft=4;spacingRight=4;overflow=hidden;rotatable=0;points=[[0,0.5],[1,0.5]];portConstraint=eastwest;fontSize=13;" parent="6" vertex="1">
                    <mxGeometry y="334" width="140" height="26" as="geometry"/>
                </mxCell>
                <mxCell id="10" value="Categoria" style="swimlane;fontStyle=0;childLayout=stackLayout;horizontal=1;startSize=26;fillColor=none;horizontalStack=0;resizeParent=1;resizeParentMax=0;resizeLast=0;collapsible=1;marginBottom=0;" parent="1" vertex="1">
                    <mxGeometry x="310" y="20" width="140" height="78" as="geometry"/>
                </mxCell>
                <mxCell id="11" value="_id: ObjectId" style="text;strokeColor=none;fillColor=none;align=left;verticalAlign=top;spacingLeft=4;spacingRight=4;overflow=hidden;rotatable=0;points=[[0,0.5],[1,0.5]];portConstraint=eastwest;" parent="10" vertex="1">
                    <mxGeometry y="26" width="140" height="26" as="geometry"/>
                </mxCell>
                <mxCell id="12" value="descriÃ§Ã£o: String" style="text;strokeColor=none;fillColor=none;align=left;verticalAlign=top;spacingLeft=4;spacingRight=4;overflow=hidden;rotatable=0;points=[[0,0.5],[1,0.5]];portConstraint=eastwest;" parent="10" vertex="1">
                    <mxGeometry y="52" width="140" height="26" as="geometry"/>
                </mxCell>
                <mxCell id="14" value="Cliente" style="swimlane;fontStyle=0;childLayout=stackLayout;horizontal=1;startSize=26;fillColor=none;horizontalStack=0;resizeParent=1;resizeParentMax=0;resizeLast=0;collapsible=1;marginBottom=0;fontSize=13;verticalAlign=middle;fontColor=#FFFFFF;spacingTop=1;spacing=-1;spacingLeft=3;spacingBottom=0;spacingRight=1;labelBackgroundColor=none;" parent="1" vertex="1">
                    <mxGeometry x="10" y="210" width="180" height="364" as="geometry">
                        <mxRectangle x="20" y="230" width="70" height="26" as="alternateBounds"/>
                    </mxGeometry>
                </mxCell>
                <mxCell id="15" value="_id: ObjectId" style="text;strokeColor=none;fillColor=none;align=left;verticalAlign=middle;spacingLeft=3;spacingRight=1;overflow=hidden;rotatable=0;points=[[0,0.5],[1,0.5]];portConstraint=eastwest;fontSize=13;fontColor=#FFFFFF;spacingTop=1;spacing=-1;spacingBottom=0;labelBackgroundColor=none;" parent="14" vertex="1">
                    <mxGeometry y="26" width="180" height="26" as="geometry"/>
                </mxCell>
                <mxCell id="16" value="nome: String" style="text;strokeColor=none;fillColor=none;align=left;verticalAlign=middle;spacingLeft=3;spacingRight=1;overflow=hidden;rotatable=0;points=[[0,0.5],[1,0.5]];portConstraint=eastwest;fontSize=13;fontColor=#FFFFFF;spacingTop=1;spacing=-1;spacingBottom=0;labelBackgroundColor=none;" parent="14" vertex="1">
                    <mxGeometry y="52" width="180" height="26" as="geometry"/>
                </mxCell>
                <mxCell id="17" value="cpf: String" style="text;strokeColor=none;fillColor=none;align=left;verticalAlign=middle;spacingLeft=3;spacingRight=1;overflow=hidden;rotatable=0;points=[[0,0.5],[1,0.5]];portConstraint=eastwest;fontSize=13;fontColor=#FFFFFF;spacingTop=1;spacing=-1;spacingBottom=0;labelBackgroundColor=none;" parent="14" vertex="1">
                    <mxGeometry y="78" width="180" height="26" as="geometry"/>
                </mxCell>
                <mxCell id="44" value="data_nascimento: DateTime?" style="text;strokeColor=none;fillColor=none;align=left;verticalAlign=middle;spacingLeft=3;spacingRight=1;overflow=hidden;rotatable=0;points=[[0,0.5],[1,0.5]];portConstraint=eastwest;fontSize=13;fontColor=#FFFFFF;spacingTop=1;spacing=-1;spacingBottom=0;labelBackgroundColor=none;" parent="14" vertex="1">
                    <mxGeometry y="104" width="180" height="26" as="geometry"/>
                </mxCell>
                <mxCell id="45" value="email: String" style="text;strokeColor=none;fillColor=none;align=left;verticalAlign=middle;spacingLeft=3;spacingRight=1;overflow=hidden;rotatable=0;points=[[0,0.5],[1,0.5]];portConstraint=eastwest;fontSize=13;fontColor=#FFFFFF;spacingTop=1;spacing=-1;spacingBottom=0;labelBackgroundColor=none;" parent="14" vertex="1">
                    <mxGeometry y="130" width="180" height="26" as="geometry"/>
                </mxCell>
                <mxCell id="46" value="logradouro: String" style="text;strokeColor=none;fillColor=none;align=left;verticalAlign=middle;spacingLeft=3;spacingRight=1;overflow=hidden;rotatable=0;points=[[0,0.5],[1,0.5]];portConstraint=eastwest;fontSize=13;fontColor=#FFFFFF;spacingTop=1;spacing=-1;spacingBottom=0;labelBackgroundColor=none;" parent="14" vertex="1">
                    <mxGeometry y="156" width="180" height="26" as="geometry"/>
                </mxCell>
                <mxCell id="47" value="num_casa: String" style="text;strokeColor=none;fillColor=none;align=left;verticalAlign=middle;spacingLeft=3;spacingRight=1;overflow=hidden;rotatable=0;points=[[0,0.5],[1,0.5]];portConstraint=eastwest;fontSize=13;fontColor=#FFFFFF;spacingTop=1;spacing=-1;spacingBottom=0;labelBackgroundColor=none;" parent="14" vertex="1">
                    <mxGeometry y="182" width="180" height="26" as="geometry"/>
                </mxCell>
                <mxCell id="48" value="complemento: String?" style="text;strokeColor=none;fillColor=none;align=left;verticalAlign=middle;spacingLeft=3;spacingRight=1;overflow=hidden;rotatable=0;points=[[0,0.5],[1,0.5]];portConstraint=eastwest;fontSize=13;fontColor=#FFFFFF;spacingTop=1;spacing=-1;spacingBottom=0;labelBackgroundColor=none;" parent="14" vertex="1">
                    <mxGeometry y="208" width="180" height="26" as="geometry"/>
                </mxCell>
                <mxCell id="82" value="bairro: String" style="text;strokeColor=none;fillColor=none;align=left;verticalAlign=middle;spacingLeft=3;spacingRight=1;overflow=hidden;rotatable=0;points=[[0,0.5],[1,0.5]];portConstraint=eastwest;fontSize=13;fontColor=#FFFFFF;spacingTop=1;spacing=-1;spacingBottom=0;labelBackgroundColor=none;" parent="14" vertex="1">
                    <mxGeometry y="234" width="180" height="26" as="geometry"/>
                </mxCell>
                <mxCell id="83" value="municipio: String" style="text;strokeColor=none;fillColor=none;align=left;verticalAlign=middle;spacingLeft=3;spacingRight=1;overflow=hidden;rotatable=0;points=[[0,0.5],[1,0.5]];portConstraint=eastwest;fontSize=13;fontColor=#FFFFFF;spacingTop=1;spacing=-1;spacingBottom=0;labelBackgroundColor=none;" parent="14" vertex="1">
                    <mxGeometry y="260" width="180" height="26" as="geometry"/>
                </mxCell>
                <mxCell id="84" value="uf: String" style="text;strokeColor=none;fillColor=none;align=left;verticalAlign=middle;spacingLeft=3;spacingRight=1;overflow=hidden;rotatable=0;points=[[0,0.5],[1,0.5]];portConstraint=eastwest;fontSize=13;fontColor=#FFFFFF;spacingTop=1;spacing=-1;spacingBottom=0;labelBackgroundColor=none;" parent="14" vertex="1">
                    <mxGeometry y="286" width="180" height="26" as="geometry"/>
                </mxCell>
                <mxCell id="91" value="cep: String" style="text;strokeColor=none;fillColor=none;align=left;verticalAlign=middle;spacingLeft=3;spacingRight=1;overflow=hidden;rotatable=0;points=[[0,0.5],[1,0.5]];portConstraint=eastwest;fontSize=13;fontColor=#FFFFFF;spacingTop=1;spacing=-1;spacingBottom=0;labelBackgroundColor=none;" parent="14" vertex="1">
                    <mxGeometry y="312" width="180" height="26" as="geometry"/>
                </mxCell>
                <mxCell id="92" value="celular: String" style="text;strokeColor=none;fillColor=none;align=left;verticalAlign=middle;spacingLeft=3;spacingRight=1;overflow=hidden;rotatable=0;points=[[0,0.5],[1,0.5]];portConstraint=eastwest;fontSize=13;fontColor=#FFFFFF;spacingTop=1;spacing=-1;spacingBottom=0;labelBackgroundColor=none;" parent="14" vertex="1">
                    <mxGeometry y="338" width="180" height="26" as="geometry"/>
                </mxCell>
                <mxCell id="18" value="Venda&#10;" style="swimlane;fontStyle=0;childLayout=stackLayout;horizontal=1;startSize=26;fillColor=none;horizontalStack=0;resizeParent=1;resizeParentMax=0;resizeLast=0;collapsible=1;marginBottom=0;fontSize=13;" parent="1" vertex="1">
                    <mxGeometry x="330" y="703.97" width="140" height="184" as="geometry"/>
                </mxCell>
                <mxCell id="19" value="_id: ObjectId" style="text;strokeColor=none;fillColor=none;align=left;verticalAlign=top;spacingLeft=4;spacingRight=4;overflow=hidden;rotatable=0;points=[[0,0.5],[1,0.5]];portConstraint=eastwest;fontSize=13;" parent="18" vertex="1">
                    <mxGeometry y="26" width="140" height="26" as="geometry"/>
                </mxCell>
                <mxCell id="20" value="num_venda: Number" style="text;strokeColor=none;fillColor=none;align=left;verticalAlign=top;spacingLeft=4;spacingRight=4;overflow=hidden;rotatable=0;points=[[0,0.5],[1,0.5]];portConstraint=eastwest;fontSize=13;" parent="18" vertex="1">
                    <mxGeometry y="52" width="140" height="28" as="geometry"/>
                </mxCell>
                <mxCell id="21" value="data_hora: DateTime" style="text;strokeColor=none;fillColor=none;align=left;verticalAlign=bottom;spacingLeft=4;spacingRight=4;overflow=hidden;rotatable=0;points=[[0,0.5],[1,0.5]];portConstraint=eastwest;fontSize=13;" parent="18" vertex="1">
                    <mxGeometry y="80" width="140" height="26" as="geometry"/>
                </mxCell>
                <mxCell id="52" value="data_hora: DateTime" style="text;strokeColor=none;fillColor=none;align=left;verticalAlign=bottom;spacingLeft=4;spacingRight=4;overflow=hidden;rotatable=0;points=[[0,0.5],[1,0.5]];portConstraint=eastwest;fontSize=13;" parent="18" vertex="1">
                    <mxGeometry y="106" width="140" height="26" as="geometry"/>
                </mxCell>
                <mxCell id="53" value="itens: [ItemVendas]" style="text;strokeColor=none;fillColor=none;align=left;verticalAlign=bottom;spacingLeft=4;spacingRight=4;overflow=hidden;rotatable=0;points=[[0,0.5],[1,0.5]];portConstraint=eastwest;fontSize=13;" parent="18" vertex="1">
                    <mxGeometry y="132" width="140" height="26" as="geometry"/>
                </mxCell>
                <mxCell id="54" value="cliente: Cliente" style="text;strokeColor=none;fillColor=none;align=left;verticalAlign=bottom;spacingLeft=4;spacingRight=4;overflow=hidden;rotatable=0;points=[[0,0.5],[1,0.5]];portConstraint=eastwest;fontSize=13;" parent="18" vertex="1">
                    <mxGeometry y="158" width="140" height="26" as="geometry"/>
                </mxCell>
                <mxCell id="22" value="" style="endArrow=diamondThin;endFill=0;endSize=24;html=1;entryX=0.022;entryY=0.987;entryDx=0;entryDy=0;entryPerimeter=0;exitX=0.45;exitY=1.231;exitDx=0;exitDy=0;exitPerimeter=0;" parent="1" source="92" target="19" edge="1">
                    <mxGeometry width="160" relative="1" as="geometry">
                        <mxPoint x="110" y="560" as="sourcePoint"/>
                        <mxPoint x="160" y="450" as="targetPoint"/>
                        <Array as="points">
                            <mxPoint x="110" y="602"/>
                        </Array>
                    </mxGeometry>
                </mxCell>
                <mxCell id="27" value="1" style="edgeLabel;html=1;align=center;verticalAlign=middle;resizable=0;points=[];fontSize=13;fontColor=#FFFFFF;" parent="22" vertex="1" connectable="0">
                    <mxGeometry x="-0.8637" y="1" relative="1" as="geometry">
                        <mxPoint x="24" y="8" as="offset"/>
                    </mxGeometry>
                </mxCell>
                <mxCell id="28" value="0..*" style="edgeLabel;html=1;align=center;verticalAlign=middle;resizable=0;points=[];fontSize=15;fontColor=#FFFFFF;" parent="22" vertex="1" connectable="0">
                    <mxGeometry x="0.5919" y="1" relative="1" as="geometry">
                        <mxPoint x="37" y="-5" as="offset"/>
                    </mxGeometry>
                </mxCell>
                <mxCell id="24" value="" style="endArrow=diamondThin;endFill=0;endSize=24;html=1;fontSize=13;fontColor=#FFFFFF;labelPosition=center;verticalLabelPosition=middle;align=center;verticalAlign=middle;spacingLeft=0;horizontal=1;entryX=0.5;entryY=0;entryDx=0;entryDy=0;exitX=0.377;exitY=1;exitDx=0;exitDy=0;exitPerimeter=0;" parent="1" target="18" edge="1">
                    <mxGeometry width="160" relative="1" as="geometry">
                        <mxPoint x="370" y="470" as="sourcePoint"/>
                        <mxPoint x="480" y="320" as="targetPoint"/>
                        <Array as="points"/>
                    </mxGeometry>
                </mxCell>
                <mxCell id="29" value="0..*" style="edgeLabel;html=1;align=center;verticalAlign=middle;resizable=0;points=[];fontSize=13;fontColor=#FFFFFF;" parent="24" vertex="1" connectable="0">
                    <mxGeometry x="0.2729" y="2" relative="1" as="geometry">
                        <mxPoint x="16" as="offset"/>
                    </mxGeometry>
                </mxCell>
                <mxCell id="30" value="1..*" style="edgeLabel;html=1;align=center;verticalAlign=middle;resizable=0;points=[];fontSize=13;fontColor=#FFFFFF;" parent="24" vertex="1" connectable="0">
                    <mxGeometry x="-0.6875" y="3" relative="1" as="geometry">
                        <mxPoint x="14" y="9" as="offset"/>
                    </mxGeometry>
                </mxCell>
                <mxCell id="25" value="" style="endArrow=diamondThin;endFill=0;endSize=24;html=1;fontSize=13;fontColor=#FFFFFF;exitX=0;exitY=0.5;exitDx=0;exitDy=0;entryX=1;entryY=0.5;entryDx=0;entryDy=0;" parent="1" source="8" target="3" edge="1">
                    <mxGeometry width="160" relative="1" as="geometry">
                        <mxPoint x="480" y="290" as="sourcePoint"/>
                        <mxPoint x="460" y="215" as="targetPoint"/>
                        <Array as="points">
                            <mxPoint x="640" y="210"/>
                        </Array>
                    </mxGeometry>
                </mxCell>
                <mxCell id="31" value="1" style="edgeLabel;html=1;align=center;verticalAlign=middle;resizable=0;points=[];fontSize=13;fontColor=#FFFFFF;" parent="25" vertex="1" connectable="0">
                    <mxGeometry x="-0.6301" y="-2" relative="1" as="geometry">
                        <mxPoint x="9" y="-12" as="offset"/>
                    </mxGeometry>
                </mxCell>
                <mxCell id="32" value="0..*" style="edgeLabel;html=1;align=center;verticalAlign=middle;resizable=0;points=[];fontSize=13;fontColor=#FFFFFF;" parent="25" vertex="1" connectable="0">
                    <mxGeometry x="0.5355" y="1" relative="1" as="geometry">
                        <mxPoint y="-11" as="offset"/>
                    </mxGeometry>
                </mxCell>
                <mxCell id="26" value="" style="endArrow=diamondThin;endFill=0;endSize=24;html=1;fontSize=13;fontColor=#FFFFFF;entryX=0.076;entryY=0.028;entryDx=0;entryDy=0;exitX=0;exitY=0.25;exitDx=0;exitDy=0;entryPerimeter=0;" parent="1" source="10" target="18" edge="1">
                    <mxGeometry width="160" relative="1" as="geometry">
                        <mxPoint x="220" y="120" as="sourcePoint"/>
                        <mxPoint x="380" y="120" as="targetPoint"/>
                        <Array as="points">
                            <mxPoint x="150" y="30"/>
                        </Array>
                    </mxGeometry>
                </mxCell>
                <mxCell id="34" value="1" style="edgeLabel;html=1;align=center;verticalAlign=middle;resizable=0;points=[];fontSize=13;fontColor=#FFFFFF;" parent="26" vertex="1" connectable="0">
                    <mxGeometry x="-0.7558" y="3" relative="1" as="geometry">
                        <mxPoint x="-22" y="3" as="offset"/>
                    </mxGeometry>
                </mxCell>
                <mxCell id="35" value="0..*" style="edgeLabel;html=1;align=center;verticalAlign=middle;resizable=0;points=[];fontSize=13;fontColor=#FFFFFF;" parent="26" vertex="1" connectable="0">
                    <mxGeometry x="0.2537" y="2" relative="1" as="geometry">
                        <mxPoint x="-20" y="5" as="offset"/>
                    </mxGeometry>
                </mxCell>
                <mxCell id="55" value="ItemVenda&#10;" style="swimlane;fontStyle=0;childLayout=stackLayout;horizontal=1;startSize=26;fillColor=none;horizontalStack=0;resizeParent=1;resizeParentMax=0;resizeLast=0;collapsible=1;marginBottom=0;fontSize=13;" parent="1" vertex="1">
                    <mxGeometry x="530" y="723.97" width="140" height="104" as="geometry"/>
                </mxCell>
                <mxCell id="56" value="num_item: Number" style="text;strokeColor=none;fillColor=none;align=left;verticalAlign=top;spacingLeft=4;spacingRight=4;overflow=hidden;rotatable=0;points=[[0,0.5],[1,0.5]];portConstraint=eastwest;fontSize=13;" parent="55" vertex="1">
                    <mxGeometry y="26" width="140" height="26" as="geometry"/>
                </mxCell>
                <mxCell id="57" value="Quantidade: number" style="text;strokeColor=none;fillColor=none;align=left;verticalAlign=top;spacingLeft=4;spacingRight=4;overflow=hidden;rotatable=0;points=[[0,0.5],[1,0.5]];portConstraint=eastwest;fontSize=13;" parent="55" vertex="1">
                    <mxGeometry y="52" width="140" height="26" as="geometry"/>
                </mxCell>
                <mxCell id="58" value="produto: Produto" style="text;strokeColor=none;fillColor=none;align=left;verticalAlign=bottom;spacingLeft=4;spacingRight=4;overflow=hidden;rotatable=0;points=[[0,0.5],[1,0.5]];portConstraint=eastwest;fontSize=13;" parent="55" vertex="1">
                    <mxGeometry y="78" width="140" height="26" as="geometry"/>
                </mxCell>
                <mxCell id="64" value="" style="endArrow=diamondThin;endFill=0;endSize=24;html=1;entryX=0.451;entryY=-0.008;entryDx=0;entryDy=0;entryPerimeter=0;exitX=0.834;exitY=0.007;exitDx=0;exitDy=0;exitPerimeter=0;" parent="1" source="18" target="55" edge="1">
                    <mxGeometry width="160" relative="1" as="geometry">
                        <mxPoint x="440" y="693.97" as="sourcePoint"/>
                        <mxPoint x="640" y="663.97" as="targetPoint"/>
                        <Array as="points">
                            <mxPoint x="447" y="653.97"/>
                            <mxPoint x="530" y="653.97"/>
                            <mxPoint x="590" y="653.97"/>
                        </Array>
                    </mxGeometry>
                </mxCell>
                <mxCell id="65" value="1" style="edgeLabel;html=1;align=center;verticalAlign=middle;resizable=0;points=[];fontSize=13;" parent="64" vertex="1" connectable="0">
                    <mxGeometry x="-0.8811" y="-1" relative="1" as="geometry">
                        <mxPoint x="12" as="offset"/>
                    </mxGeometry>
                </mxCell>
                <mxCell id="66" value="0..*" style="edgeLabel;html=1;align=center;verticalAlign=middle;resizable=0;points=[];" parent="64" vertex="1" connectable="0">
                    <mxGeometry x="0.6687" relative="1" as="geometry">
                        <mxPoint x="-21" y="14" as="offset"/>
                    </mxGeometry>
                </mxCell>
                <mxCell id="70" value="" style="shape=stencil(lZzZkt62EYWfZm5Z2Jdrx3kPV1mOVFEkl6wk9tsHyBQ45Gnyo+ZOHvf5CYKNXk534yX+9MfHX37/8BLcH9+/ff3nh/9++vX7x5f4t5cQPn35+OHbp+/jXy/x55f4029fv334x7ev//7y6+t///7LlJz/+tfX/8xf+PMV59PmykQF99frX9xW6v//8PdX+c+fvhzl45bzSd5vyaF8SCLfCsiHrYeTfNhiRPnURb5llHfn9cctdpD3W3Ei3xPK+3aST1um/XFbPb9v3hztv9P9zFtu9/J9q+fllM3B6/YtOhHPsJq2tfPm183Bx2pbiiKew7143fp57W1zKJ69iPOviyJ0XHvZShLxDHpctlDPau9w4/PWi8oXWE7eihzDoXigl9msZxwEkE9biyrfYf1p7cYuH9fBvJHX9cT1tS/l43r6Lp+2BJoZt+pUvqN8OiuPz1uC9YT1a7t82SLoQ1hWdZev6yDfyKezWfBtC/j7up/jKIMdDJs38rT/xmxOP0F2VvV5/CWSHVRLMn+B7L7q51hhRvl6ft/xxT3KFyNf8X1F/4eGR7Ljxm0lPF9e9WFaAE/yUb7XsEi4/tBVvuF6gux/fdh/0bdhnT3o25DPKl9xP/3ZPE9XBtbf/H50D/op64/+af1n3xXZ3g75rvJkr8b+S1gSH86L/j7bQ6/2JBaOS7Yk+1k3j/qZm8oXigu3ej5fsa0duLM/VeUr2ttwtv+xY9wZlnc4yHd436DrTw7jwri0ZZf3GD/EtdqDfEF/ms/6kALah7g1r/INztdIK0R+rBDWk5b33OUT+q+0lbM9TBm/14hnzvqQCp73vLR3l68P8nIehzzlOdm8b1se7UY+iT509C9Zg+HE+pk1XsoO85ys8Vge9g32p2y+qDzlLUUTkTwSSdC3ovZnyJO/KKo/mfWt6Pkd8h3j/37e/5zRP5psJI8dg/2sZn/Y3lZN23NDe163Kt+3o/8yuVpxmKw19S9DnvxRU/0vHvezreholw/4vuP0OZXnvNqd9afE5WFv5PV943rijXw+2/PC+U4368+4npmONgV0JirEYpWyqJE7gKSohU3oAHR5h7a8yC3XUhVASfMACAFRxnehKM6bd2AzOgDtrBeV/fwAiCGtngMtk7kNQKFIN2gqUMMKfu8AonsDUEiXRnBzPmw1rvTgDtCaAipFf1FZyppWwvKDtGNN6F+9CYhqXszcHUAsfN0pomtA0hC8VlaNpD68jpyJlpQ06R6ARkvKynpUZrUGQNxCc0hj+KLfofnl6e4AxQAwEa2aybXAX7quPdkBkQHNvENizrut0PsAIHLF98VF7ICH7L5r+tQKhkfBaTw+AJX4HqcOt1VMqAdAzvQANDBklnJobanjHaAUBVCMGvaQdAd0TEJmlnYGdIcnbtKGRQFkyGaec/7S3fO2JtXW7jEwmZlCUABVRGZFQJYU+KWL2aWw/Oo1oKqZ6bvHuAa0pcw7ICI5P8OxpgDc1q6mcgBoW6Nb9MoBQAlw9FrI6nup7RoQzBPYx03GxzyBOOuY9IgOAJEuMWv1aADIasSiYfcAkPWOdVnSA4B40NjMl85MjDTzDhlNZezmTGek9tNe2TkAMqj3ANSsAPoOycStA9DoCUEdygBQevXG5uyAgkYgRQ0SOxPMKSnDNgDI2CQNsCaASkp5RakHANagivnSZUWB14C6XvEAqBAJpD1gOwDwwzVNBwaAeN1J68gTKgZY2S1e6gDwxCR5pf4GgEpR2XrRioYsm9i7P5BtyXy4ASB2y5Q/n55QzId7BPT8LkDVitQToF3sEm5rN5EAh3DFGfWuaPmKN5avrrDxDqBneuRABDB10wGgLKvERYseAJXq+kmZ9gGgdKAkDUMHgI5osV60IZdWbIDVsFhZ9k08AMjHlaZkzgDQAZo8SVYABevV6lJDp1hNOtAb5kA1bNG8NGXsdQ8JDwAK4arJ2CcAbGvNxmo8AIppQuGMfQC60SUEVHPiHgDNeNGGKc2kDIy2UjTT3FK1o2rALjVvopmGZqaFxZ0fAWBbW9RMcZ4HooujcpXzxEFk3ExDzTzT9ISsFYfOjP1M6I0ho1B65OfWTxNNMdJt7YGqTNr31T32g4CRPWfjHxDgjSGryAn0oHTRNPegfN10+kyHQk+IJpSuyEp3qxoVWbgZ/DcDoHcoa09+FNAvvOgDwH5prJ90kwNVbDwdgGZiDQqlezemktXbO3dhBeiMdssiNKwizpd4l1ccAGuNUZmurDGlKN20fE4AL8kaV7L3438rsdFYv5vJODjY6M2YvoYFiEsAhWQXS+L6/sVL1/dua8X45+LDPZgNqxoVu3svlI+D7wv1rhg7XByguvLZ95xR1m8bMVHadGFo2ko3f9SUNayMXhjLhgW2C3PMoe77AdVk1A+AYjjdB0Be1PsRwG4xmW2llo7J4Jp3aOSDwoUVIA8xog2N+nbi+S6e0eChY+11ADQbZcAIsaRR6QnQtDNxAihc39meHwXsNN0RQIFoNsrXkQoZwXQOCiAH0aLWy+YZJEAwZEtHanDkKBpMdzTfIwvSxKxjx16zNHNHMn4kZvbD0XmozZDxHaPvkVzKET3Y57v8VQL8R0S++HSU1oysXbOUB0DUcu3TawfjFx821l88gUxZdRfvQNFx6TqmNPWV+tlsLteZujMdYZ07rEu5sn3wHYrlXDtWzGaLk4kFKHooSbt2O3ddziYt60eJJ4umysGxwGwzMz6IinjFa6fXzDkI4ExJgamKSQNbboOY6W4MfkMfdEFlc2fLBVn+ALB0fMP+yAvC/wFgSwoPAFu04Mh1lkXME3CGzJLlDcOT7K/SIC4e2aydIqbUr/ImArSL8lTlmpyqd8VgOlUTMVU8orNT3BYtCJBNIFqRfkzJnGmu1AyAVsF5nGx23xsGiI5oCsbtVmzoTd6QUgWJtWRGUgYAP5wlBwtOeMZuemcK0jMDEAyAXFa0hqxgo0qsplyb8TwMgJqZjCl1LMbHZWSMYjb1rMyjKclYDW6QiNFYb25OjuGiQYKUL3qdop6kKgHM2PVshaGWpG7ie24CDM3w9wnJxGD6EnvEjuw5M+AVgO9QLtqqcMgp69RAj0iTzSFGeULAQDckU/UL2LMxxzDNEyg4mT19puOOSs7zwgGnANJWO7s6mwAZkAyAqk3BFMBG2k8l5+D0xA1AoiZAp5nc7K2kRkZDVLSGTYC+68RNqzxw0E1jb11O7BrQtA39ocf1orG38FCnCUMb377gzZjOAFC264tpTk6ri+MOoB8ucr+0KTm3yNuazUs/XLGRlWceAJyFNnlc4+Een8yXdlgLGgD9Do6nLKK52aLzPSFR+6Vr43EAO9LAga43LXpvzQB3AJ3jeJjhDUoNvjU03AHEA9XE58Greg8AjgOYOfwakbgbAFG++jBI7bUju3I385w6kg/nMYQbAClZDAA123inBeHqkCqfo1ZdAWjInO5SYXrTm3ae0rgwr+RP4Qajrie6PBTNtfxQuE/S0ORDniqEpt5XeH6zaW5SeN7IdLgXjg6rVvBLfJgn1f0M2BdRNSQpbLOr5sTFcy+V3s9Q9hsGrkmoi3lSun+jqHGcLBZf5yPzsP1hPdJLmbmKWDS5zRVDbXP/Ty7IAGQ1ETljrGOSvCFPFiKr78icH2UdMhzylAhnsz8R6eds5qM5CDHz/jng901m/t1zZ7eZp/bYopk0PMiOW8017U9csErmvoL2cL+E6Fviu7ii5vypoP2J5v6BjL0G0bxvwqlW05WVIpJHQasXQ56KmKb+lwKGc6YZdcgTVxsu7vfAYVBlRJLjQWQlm4f8w304cl9Kx0KH0/h4yNP7OrU/kRufTD4aOVt0GuBH7qZ35j6cgl19pvg65Ik/NelxzNicY9paHu7nsfJ8/4+V57DYzIs+3F/kdIjw4X4kZ65h5PuX9nRtyc/7nVB/hCAP3G3i1H4GLs44c59VRYLFmfuyeBDIrRLdQZ7iQ6f2Z3pwOO9O4+c3j3knb+4rC/j7Yj+Hhacii9MKeWCm0ak/mjcyobxUWN5ukLuTrypPNKPT+Pxtx27srdgH33kIXRnAIY9XLGgN1z/QEcrDem6I9Oa+xIfLDMy1sQX5RTM96zPzkea+RB65NzNqnu9pNQMC8/4HjmeayvPvS/7i+f6ZpL09kynBeFKqQp7tc9J4w/N9jyY+98xAmJsnOr5uNmVkrAcV3R3mpouWCDjWqOYiD6Roq4Y+BX+9KRlacO1Na82Z5x/Ur2c0U13VhqMSM4ya0AnZO4X4ElhvrPjj5c2iB3xpnTdNfIGJOjNnxE7FB6XS3WpTueOIhXVzq73oTl4m3Pj6iklaqzw1XE0bZuT590tUeb4svOr74gVQUZtFHDstk/U6DPK8mQ11GIRN+S7yNCk9rwTS/aFC+pU8XQrmDSvgMAl/92Xwj/LjH283z//26fPn14vrj/9fb6off3q95T7+/D8=);lineShape=1;fontSize=13;" parent="1" vertex="1">
                    <mxGeometry x="240.58553600615602" y="670.0258089028176" width="228.68859992093863" height="248.9302397017215" as="geometry"/>
                </mxCell>
                <mxCell id="72" value="" style="shape=stencil(rVvJjh03DPyauQpaqIVnJ/kPAx7Hgzgew3a2v08pAz13l/rVwEBuzoT1JFFciqT6obz5+uHt58eHHL9++/L82+NfT+++fXgoPz3k/PTpw+OXp2/410P5+aG8ef/85fHXL89/fHr38t+f307J+a/fn/+cv/D3Cy4GixOU4z8vf/AecvnvL7+8yH98+nSQT2EUli92Xz6Hnjf5dF++hLb9fh735S3Uusn3+/I11P28Qr4Faz+yn36lTyE/Qtn0k+p9eV+7PcjHKO4rhjTOgBa6AqSQIgPUDaccIqmoBhcqBcCdAVXoKJUwjAGpCYBtVmShK6uuoQwGFBeAFmJlQFJqbWsDN0AJrtTaty1BDcIyAPDGgKbUOkI1Bpi6OA8pM0AZKwB8aMQDsQLCUakMKOIMADhpKa2/XANSaIkBVW0phxwZoIxvhjzaUgxdaAkxj2NG1DHVQswMiMK8AaBDD9f3AP9yBlS1pRYyrTCktebOgQyApFYYS+s3QA9V3YOziw74oPBpAMiBRpW2VGIYgwFJqLUkDmTDlsFfA27ucgMUeehSQqd7QLQVcanYsv4DIKoVajBSK9SQBaBxIOuwJXEPBaZxXqGP5YPXACTRswP1FppaAbbZGJCEAxWYxtnjeg1ZWKtFtqVuwRQAWj9fXC/Luu4B/Bxbe5bWamXbUpJBwGyZ2gEQ1RkqB4GOQKZWqCtGLEBDXBLGZ6BjzgDlcQY2dd5SG6FpQDcGKEJsYxGFG6BLrmHO0RuAJKwVgEZagnkLj6sx5PPFtbru/h6AAhkAWa2AnElqtUWUrwGZo3cr0vjqlkUBUMZXCzPphswt1ArAOEe+lmRcqsZRo0VJEmvl6F1dA3Cv5xXqCFEBOhMs/CWKhILfa2drrTryYcftHFtxKlVwQCeUUKaiRcUHrZNP4+6bAuQNgJ8QkQ+WQ/QHBq+ILoyZ6A8AipzAXajKgtOqPA0PpqIJcURFDQAoeiNSNQXoS+s3QJMZaAZGWqHKkgaht509bqYYcXHIBhTIAEgKkLYtwTTEGZACKXoDUMUZkGR7ZIBKWTONn83b0uIG14DKbAYAFe5BRSJtSZcDANBNg65EdYbOTRlQLtUTAP+iiytNhnswPKMVtC2BQ1L0nkxWqHUkznHgyiZsCbSWCg7Qd2WtAFCrCwAVKkHN7QxARWEKYMz5UOQMpaXKbAZllCrxUfHE86Fzk8EYNVU0BqhyAAA/WytqRxPmjTKPPG5Wp2oFX8H9BiiyYkcxnAmgmwgo6Pkekjw0AORA6cbRrgGZqXTSrNLLikI3gO7zzfbT+dCpymrXK4eZZNL4ZpPurKVUZKicbcBzFk1xhedrQONDD5nXZ+uT2I+kuT5WcXHbkHRoyJNtR5nUHWF3kLwqTiCfneTlHTvfQJRxHvKd9y/9wJngRlmC+tYwAYFWXdYY2ebyiuJ3F6CY/ZqCBsur0DIVRAxmedHdC2B5xS4gXxLLK5907r2bTCDTQPn3ZdwaXJAUvf+tWsgye/ittv4uLw10cPmSZDvMB/cLoiTNvpXaUQ5jpkOyvOqrQt6M5QVpgXxj+azO68zsouxrTX8x1qccDl045CsHcDYI1a+Z8kRNV/fw/5EH+6B5gVZo5/EfUpJqj/rWP0p65OHbnAd5WDUvAeDE3bVT1sVzD+TjFWrQBgOGysOF20GTD2m2EskssuwfeeZMj4tWnZE5pDlfNEKd6nbOmcvGfIummWRK4NZq5DG2bA+60hW3HosNHOoD1egYWyO8aEIxNgI1RxRqhc2WSpJdhTmvOB96jijUCoV788WktY7MJA0ARWRRCVLNX5rkpXNeQVvqutaMXB+UoRsdex6Pug0xeMhoSaoVJTyp1YrsFPbGqco0t+i3mfyhHfRKZ4QinzXd3SnrXg8ARY/6ZhoAqIKipzWZOgCG6ltEZsDWZQZtzvNnAFRcmvMK0pIv67rXlqMgUPVQpXUeSMxuvWr8NQ4CVft026JGLXIg0Wzbksmk2MqK1QeAq27nllBqlW252XU++0PtutsZt67zkKZRfRVDh+6/nJEMri5mL13YEnZMK8xTqS015p+zly60BCUyoEgGimvi8ZmtU10DCpdgrerBUGEHgv2qqhzGTP2j6SFq5JG2wZD2aQDyNjOUZ4grzt0AvvjNJQAxgoe9UQ63bGstzNCmAINvuuuhyoxzZy0hPMvpcGcX7Vmv0Dg/zAm30lJjgtV1pxAZjSfctkbY1wDbDm3LWO4B+PFDlRMMpHEiJ8jcihnbNvLoXXZhAKCCA+xDZSBQkZwZoNgMyA6xme760aczAJRLVVngX9T9n/MABejciRm6lVEaZyBQX/m2Z38XU2W3rRhnoNFkt6oUDmSjy3APak5hBiWIctHv5P8AGOpdTNyeG93mxZcAVDzk067ZzJyI0IPXtF4hXgM6P9UBQN103iarrruSuXJ57LcXrfcAZHyzva+2tFFp14262eeMDFBvcPP+BtdkeQwAP1I0yb3nS3ECVH1xiZ+IeNWHjkx/vMp+dXLu53uTUQMACjOuK5Q0eCQOgMoPAPBTzlfec189MFeF33x4vL8YV1pq66nDAaAuLlUeibsumpKt97AHgBwclK3N1yWbAYB6Mz70Teft0EPm6ZT4ichsNsvhx2ZLrqcxXOHP7rH+ksBYXr3A3Q3J5fRs/xLCJRvbv7TQv79/yaHl9y9F9H72L1FclpT7ly4ubW77kubQXb8D2C9YHTjy60rXbdzIhZLrIXXktwJzvCH3z6HLZb9nmzXM8Y8w6Ct5NQzY9zPkeHc/b5dkZ9dnl+X5fl9dMvndHvSnST/66dbr8vjH9+/E3j99/Pjymdnx//N3ZfjTyzdp5ed/AQ==);lineShape=1;fontSize=13;" parent="1" vertex="1">
                    <mxGeometry x="469.27784606025125" y="843.705545804535" width="232.0920729615982" height="67.12675825350834" as="geometry"/>
                </mxCell>
                <mxCell id="77" value="" style="shape=stencil(lVzbshy3Dfya88oieOez4/yHqyxHqiiSS1YS++8D5ogzO43dxu7bsYze4QUEgQbAt/zTHx9/+f3DW4p/fP/29Z8f/vvp1+8f3/Lf3lL69OXjh2+fvutfb/nnt/zTb1+/ffjHt6///vLr+3///suSXH/96+t/1i/8+Y6bEnpdqBT/+vEvMyT5/7/8/R3w+dOXW0AKCQAj5EwBI10BPeRCADlk+EILpVEAfqGGxr5QQslXQAk9EkANsV8BObRBAdkApFJAA0AKjQ2pBYFJS6hslZpZ1hjqpIBy/cKYfFlbaNdlHSNUpkstjHYFqGokCpjjCmihsy/0IIKAyCbdQ4I51FDYTh/KfABKyGwfOu7DUIVnO20B6VWA7Fk9O4e4tesRAA5QH2Ey9e6hXofU+zY8jwBwHnoLlQ+pX1Wj1zA6BYyJAGr5epgwpBIq+8IIESadw2RfGKitCkj8CwJDSvyIjv17N4DIllWNOyyrhMKUb+xtOgBx3xiPAO2qfG0GYdo6Qr/OoenO8CH1iYDEzvQI47oPTU0bXyW4gVr1dnpkBAizSwqAVSrbPD8EXG1ry/x+GPu4HADVJWdIV9Vosmf1CPBjmw5ADPNVQOS6NK8bV9Wb4auEgMGttwWoaeMnDgFt6++Tk1ZA5LqEgMrvh4GWr5bQHG297nRVQ+YonwEkvkqgfDW9qK1V9jefPA8KSM4qASDyG8gAytyH9iGgIkCcSQNgcOfEArqnfDiHHqIzBwA0V/kAULmjawHlxZ1WgDhzuBrjkrd/8/BCuap3STx+UAB8QbYz8fBS7AhwPIEKQ4qec1KuF0qe3F9S16EhgPpLY2vOAdBBcr8Vrt3saKvxKhUg/Avg/uTGb1ETcOTK/da278wbAD3TelwAULzALxoAPaJ1B2EHwIlFC15ZOe2I4hEgA0D4hZKRdciRm8q8bfUNQDhN0a+ANPnFnoJcdzoNfqZ1ihUBNGiSEK8HKHUeHsdQ4AuN+ksan4OjqwDmeysgXu1SUmVhXxgYWqZCj6gG9G0ggBljBUDQlPK2hfcBBzl0A2B2SQN6cE5Sot6MAn74kDcAZsiGuuawD8I3LuM9rQB2i47DnToAkRIh42CTbgCRLavGhVeATEoXDUEjoADmrI+4PbwDMKiZ6RPtknASQQFA5iiATbqPPcUD0KgbqoAoCGDBa+9o7qXSKKtrtNAQwPxWBQh8oWyzcB9Q8RZVQGarVDDgEB4OKACuXQUw56RnoxqZTzqhzyd6ptnGJTQzChjkAHXZZusG0NlOR7Stwq1Gm2juFcCY9WaMsQid9KI9DICZ+9b2nXkDYDRFq3uKByBSZ70VvEUVUBkgm52ONMRXABzRSY9DSyFNkC9EMZqgrg7KRi3Oo4N8YeOJmxI/5SPZ5DrR0nfKXal8RHmWnqlj366nPGMQa0f3Uy0ak29hAOlD179WXM9GPUOVB5JVPXo234LrX2nIUDMGVpXvV9rbc0RufDxiYkl6hmtET7hsSveufJkYwRSqD8WGqpTqORmIUz6y8dgQbDtLj+QlgzzTn1Ixl5H3gbgvX3D9EzVYRe9GcNWoe6rywOkLTa2UtPn4U545RUWMj0PtQ4nGAaHXWJ57uKc8W/9sYhCeYMgD91foecwdU7FC4+vcNp97yjNWexEC4FlTfdZoHVgOns3TYB3IpkS9M43V4Xw58mLHzwLlHFF/ODlwXp838sQ+6PWGoQ31gvT6kfqKfNsU0ZPyFfXNGX/ZfM+T8obacNYz3VkfJi871/WkvPE3uLxM9BG5/miQV17RNw3Zipkvk2+bEn9SvmLC0pEv6O858tlE3lw+YT7UkRfDsHD5uN2v5+Tnaz8/7syWhejbd3lOvBlGjPuqr4mXO5pDBpM3x3kjThz5ZO04u0cFr9FEr2nBEFvFmRZsm3eKM/Jf0CZkWkUjaKJ4hYugR64eGxlM3GTDKc6IqYMYO8VZiURE7i7TdY97ZjeDoeJiVoZOFVMom6V+JI6Hj/EBhqFINPKI9iJkme+IcXSicYdZ9yMOf7SrONVEpzrNWSVOqVgfgfmYRt8T1UhzmtIOeZ87q5kG3Oa+56l3QXcl06nqQuLxYARpRKOXd43gA/GKg+HiGcX5YATHztK8EfM1fCFfFBcbVrEEb8LLRmgOLyPpIpSLNzefcE7HMJVU3NzaXNz4BFzceBzCy2XQn+Hi1l0SSg9Yd8yRN+6eI2/cSUfeuKuOvHGHnfUx7rYjb9x5R96EC468CUe4vA13HHljXh15E6458iYc5Npvw01H3oSzsr2AJ8NlR96E4468CfcdeUMn8PlauoKvv6VD+HlZdMt1/Y8b8iGdk1Ge0TMF6SheM5kreguROnW5Yd1DpOmIbPLzvLw3D3QyI61WydP+PqVj497+G3lGr8btEp/yLF1QBNMRkdPbCe1/5HR7xsKtyOlYU1sQN7/8iN7GJCGPgZs9vywvqvJYukB7DUrHgvJE0xdlYOvNceAeyUMpdqLpuDItHcLOb42Yf8zUXlVBfTv4/fvyGc8LT1+sSlz8fbY+taC9KjSUrxUTtIU6zdWU45QdAtyX73ifVlqiUcdm1095uj4Dz2+lafs6bbqS2ZOVnsX0Y2EMlmA6utHKN5XHRhgaF7eE/k+n698SFnMMSjG0vHmlU57Fuq1gwcug993qg7jed5O2hJ2NFqc8Kz1sDdMjk96nrZs4LVLqoA2sbVQA6xVsEzVUuIvSI2aQFMDu4G5SxgqgFT7GqVEAKzTv2URJQt2O1Tplil1Y6e5qzhoIYI6KAoCpWCVBrGCnmVIUTs71bkKHTM+yArCArVDl7gON6arl4hVv0BUqvKlNAaitlZZnjGjiw0Zp72EIJuEFI0OMeve9M/cByYSgg1eAZjOkQbV12KIjXk08ilmlSd2KYapSEq+DGtWkiYRe5KOZPKDQ8mMFYKJaaOXF6OjKOqnVMZCQW0woB0Dn0vKO2D5MvK1WdQqr6jZ8vgIG64IT4586/Sw2386LtGcyQ2q8UyMZsrtTH3tmkycbvGG4mETD5KRbMV+Y1MysjntT8E9bnSrGyRrJ0/aUZlIxiXry01TiKsBpekZGOHsNMMhnF+oMry5pA2Bpv9XDDAC3VxC7fio1ZKsRCVo7mttGCvvQeffVxBO3SoLYpKfJ0fESzWligDzpDTSNmSmR9xVNE4UJDQsVAGFtcfodJ3Y5LGaCL+s0XXCMuViA1/rsJlZqep18FuDYVgtwuhEtwOl3vAegPWoW4PRsWoDTFXoPQJupzMZ5na0W4PTO3gN4O321Gl7/rwU4HcYTyzC9HmYLcLqkzQHy+rAnFjJ4nd73AJ7yvdatbgFOP7wdktNxbwBeT79ZVu/VALNx3rsERpe8lw/MifPeVphYw+y93jAxeHXeh5Boaj8WM0I+cQ/R+OMhdlDOcz12nQZ/bcSoXxu0+W/do7Cw09trCPI7z9csXwD4NPHuUSTgkndIwT3pmT+xMjFl1p0O4GmeiSmUBF0ulnkbx3ltBFjEk015BIBW1d69rn7Iq/TJfWNTF+A9amQBzrNJpltw8Koi26S/nn7iQwJnerWW8qcMwHMdnE5fzwAkBNDAbKC2jsafcxuYYFQAq0pbMQpMenDfuCO9qWE/48jXuwHQ4hX56wodk86TNzWshwauyzqdd5ZMl8vk9Z4rGr3uw+Qtkus5NwNgmaL10AAMibOV82ikugHQM10xNzB5Mmf9HszB4U6KaebrtBtrrUlEAMuvrnf9YKePDOQjdgZf+nOoENO6PZ07LmET5nmvPmSYpgFwhgkbeiNP06/nFcqrCEjsn1HFI2INM0GTh/li3o2cfOvuPZZJnx80XN/kTfTrUQmzE/TtS8Hq5uVOMOV4+cFPH6B/nO+L/vbp8+f350lv/z++R6r/9P6Waf75fw==);lineShape=1;fontSize=13;" parent="1" vertex="1">
                    <mxGeometry x="495.6982520518957" y="630.0039044554769" width="222.2085298984554" height="215.98462805319832" as="geometry"/>
                </mxCell>
                <mxCell id="78" value="" style="shape=stencil(rVvJbh03EPwaXQk2yeZydpz/MGA5FuJYhixn+fs0I3A8Uz2vRgJy09L1uPVSXeS7y+++f/7w7f4uxe/PT4+/3//18PH5813+5S6lh6+f758enu2nu/z+Lr/79Ph0/9vT44+vH19+//ZhWs6f/nj8c37C3y+4MYKmiUrxn5e/1JDHf3/49cX+y8PXvX0POtA+EvsWagR7YZ9fw8D5JG4vFeeTib2G7OwLsS+hZrCvbL0lRDnYN77evP697EcQJfYpqB7sJYXBBkghliOgBhUCkJCOgBRDZCPE5QEbIIVabwP6CLkdAWV51TmgL5/cADUUsobe3AgtaCOAuv69AXrobEoa2nHROVJH7SWMo+NlCZVNyTzpeNI5823Na082gDlvIoAUGkxJQ+EAgREs/NgaJJSKgEHCp8fQjuGWG5+S+WY/Avpy+FNAG6E0BDQG6KEcna9EOqXW1rlugETPodmeHCOuaIgckI7nUFro5ByaZb3jLmlcefAcUDAeNIXUCSDjwWkJna3BnO+Y6LVygIR2jAe1kyGpskV0bx2hk0XXgVOqFtNkW2vHKRmAVZ/aQhsOQNZQbU+KA7A16EpbrwWUVT52AJYqDZCgItrJkGRcXV6qmdbEmhzHKDRE5wSAZPC8ZEusHQGsAql3DeMBZErmm629CdCW9+8BxJdmuFQHIAGk5hpu0YzLWASjt9bFPs4BeU1gByjkHCyplOIAbEqystAOkNkI0XlrXbnwFFCMf/kRiGuUHsQvmqzBcjUU9iuAhuGmRAE+pg1AfMkA0Z8DyRolL0q4B7BdMurgzoHR0CIn56BsDXER51eOkMcb1zCZxZvce5Idf9IkgIx/DZc16AiK7cbVGuykXdagu5SR812cQ3YNxwQQbzXiPJxrDOJ82TUcVldZnbaeCvOStQMkCRj5xyk12g4YIMEIfXG0c4BNoCCA5dbkG+NtkrcAmCrHylTnAEXeaoBEDm52bW4EJgYkqw/iAOwcjDgrAlgAJQkD2u/Iz0HQvY1nsiqatjZvA+SVqU4BMlZ8bYBCfUlcw9F42ZWGLY21ICwJSEVGZk1OIhEnihFnAEbWpWCHYgDW+EkO+ejes1FjUzKSeExkfSN15wBZHHIDJEpDJWLHbh12ZyNEzHzdaCgTi5x9W5X+vNnFXrcPmsYaFrgRqVZUcT5DKPVRZD6DSxplpZPNPlHxzTUOI9PWxPUNw8ojsRcsnmPQbiyG7uxZJEfUPs2enW9EmWsMmosiBtmwqKTzB/8ZjfZV0e1PpcqHt9/oyS37Y96y82UhHE/8hyXGiKrHkIv1qrO/8IeI9kyWNH9z9oPag7Zt6+0siS4WtNmXNeINe8i5Ux2n8QJVwPyhsRyNpMj8M7JC5vxhLI+9tf8d7Rs9LyA4EiPdoIjy5RyABjweAFfzo0ug1kzygMx4AKwiRedwGgq3hwJQFj26Nf8jPZsOSvcnQ4KQ1fD8L/YJry6sADfWPmGB7BoSOS8nyU9GwNQHbBjNnupSeF5GUdj5OgnI7Cs5r4aKaBeqV3bU1RoPsIEFuHUawMaYkBtr6GRCIlgijX2zkirOJVqiISAZdQdrCFhMimM1LVJWZmQapxQ51a2YVqwLomS6YdwYgBKhjlOa7SsbYZzICKwbNQDccVSlt4oW+w2ay0wl2iSufU002E6aS6Gy2kn7KlSdOWmQZbX9N1twN6ULVaC7KTHKYikAFde4RKpbygbKm3E9GbgF6BkBzPmSe4Kgg2axHPHO3ADCBSPQ1qc8zwCyeO4OwFwjJ6T6BmCVM2d0jStAWarbHsB0OEUZYQKY+Lhpk3sAq57tbAQG6NizX03JCXcXiy7uYudiW4usO/XXAhImgasp5bNFM229YFGcAKatb6RuB0gkREs9GSGxNbQTb6WAjolMtxJzDhjrDvGVAI0o5yjXsFTwKvUKkJFtKy+K6kQv7VRxVfcYSXmDpBXpzwQQb9W2BJY9gK2ho7xpH8E0I0u9QB2Ui1hWDYBgTQC/3YW2cN6VkjUYAIqiAZhEa0ShwhqUXtbOK23YJd4o1eIeYGzs4xygrgIJVVx/3oPuAfwtQvYjMEBHGnoFGC4etpM5b09cP2wAJgg1J9Gq0HgwLj+OddoST2GvfxL60nxqQxZt/Qj4kqVnJsrNpzbHVGkVg91mta1H3QBC2YwBgHvni0VX5N7GDRirnE+e4J1XoY2f9YVQp41yMeXAGs/kns+x3NoGnnTmT216xOZ1Xhuyt2qCTwumoM8BoFclzgSsm4c6bfSdXbB153zWUdB3jwXZzBTdybZ2xf4hcUmmV/TW2dkxQMP6YL0je8HUO/ai8waNqRodb9mtw2Yx3Z0vSaE31CMi/ZHM39C6R7ey9b+3APC+iF/5zZsWeMVIk8zIyAP4tejI6NvbS85ze9caR0r3/LvtSJmSfxcel5fcsofr9civ7ty79ki5oX83f/Go2jXFXKmeN0X5bZ8P9DlS6X/edKE942Dzpus4f6E3/dMeHmDT89op9z8BjFucADKV6fyMCv9mgVsxv/zyO6pU3/InVukjYe8RF9/UeOs3QS7t7YefXzv59PDly8u3Vvb/x6+p2J9evuKS3/8L);lineShape=1;fontSize=13;" parent="1" vertex="1">
                    <mxGeometry x="274.534990414096" y="635.7413569324733" width="224.4856809018714" height="34.28038107097245" as="geometry"/>
                </mxCell>
                <mxCell id="81" value="" style="endArrow=diamondThin;endFill=0;endSize=24;html=1;fontSize=13;entryX=0.75;entryY=0;entryDx=0;entryDy=0;" parent="1" target="55" edge="1">
                    <mxGeometry width="160" relative="1" as="geometry">
                        <mxPoint x="480" y="360" as="sourcePoint"/>
                        <mxPoint x="680" y="470" as="targetPoint"/>
                        <Array as="points">
                            <mxPoint x="630" y="360"/>
                        </Array>
                    </mxGeometry>
                </mxCell>
                <mxCell id="102" value="" style="endArrow=diamondThin;endFill=0;endSize=24;html=1;exitX=-0.014;exitY=-0.115;exitDx=0;exitDy=0;exitPerimeter=0;entryX=0;entryY=0.5;entryDx=0;entryDy=0;" parent="1" source="12" target="39" edge="1">
                    <mxGeometry width="160" relative="1" as="geometry">
                        <mxPoint x="150" y="110" as="sourcePoint"/>
                        <mxPoint x="240" y="200" as="targetPoint"/>
                        <Array as="points">
                            <mxPoint x="230" y="69"/>
                            <mxPoint x="230" y="190"/>
                        </Array>
                    </mxGeometry>
                </mxCell>
            </root>
        </mxGraphModel>
    </diagram>
</mxfile>